<?xml version="1.0" standalone="no"?>
<!DOCTYPE svg PUBLIC "-//W3C//DTD SVG 20010904//EN"
 "http://www.w3.org/TR/2001/REC-SVG-20010904/DTD/svg10.dtd">
<svg version="1.0" xmlns="http://www.w3.org/2000/svg"
 width="512.000000pt" height="512.000000pt" viewBox="0 0 512.000000 512.000000"
 preserveAspectRatio="xMidYMid meet">

<g transform="translate(0.000000,512.000000) scale(0.100000,-0.100000)"
fill="#000000" stroke="none">
<path d="M1339 3625 c-15 -8 -29 -22 -33 -30 -3 -9 -6 -398 -6 -866 0 -916 -3
-876 52 -925 48 -44 48 -44 568 -114 193 -27 329 -50 370 -64 61 -21 138 -66
203 -118 42 -34 103 -31 151 7 69 56 141 96 206 115 36 11 187 35 335 55 333
44 469 64 515 76 46 11 105 73 119 124 15 54 15 1635 0 1688 -17 63 -43 72
-157 58 -350 -45 -800 -114 -854 -131 -71 -22 -167 -80 -212 -128 l-29 -31
-49 43 c-65 59 -119 90 -203 115 -58 17 -886 142 -935 141 -8 -1 -27 -7 -41
-15z m316 -150 c283 -38 523 -74 585 -86 78 -16 145 -53 207 -114 l53 -54 0
-781 0 -782 -36 22 c-115 72 -177 86 -639 150 -258 36 -375 55 -385 66 -13 13
-15 118 -18 802 -1 433 0 792 2 799 3 6 13 10 23 8 10 -3 104 -16 208 -30z
m2045 -764 c0 -736 -1 -790 -17 -810 -19 -23 -41 -27 -623 -106 -202 -28 -311
-56 -380 -100 -22 -14 -44 -25 -50 -25 -7 0 -10 241 -8 773 l3 772 25 34 c38
51 127 110 200 131 54 16 221 41 810 123 14 1 28 1 33 -1 4 -2 7 -358 7 -791z"/>
<path d="M1869 3085 c-122 -39 -199 -134 -199 -244 0 -153 59 -213 304 -306
125 -48 161 -77 161 -135 0 -34 -6 -47 -28 -66 -41 -35 -102 -49 -160 -35 -67
15 -93 36 -113 87 l-17 45 -81 -3 -81 -3 2 -42 c3 -85 67 -162 173 -212 48
-23 68 -26 155 -26 87 0 107 3 155 26 111 53 165 133 164 244 0 137 -60 199
-264 270 -165 57 -200 83 -200 150 0 68 55 111 141 109 58 -1 104 -28 133 -80
l22 -39 74 0 c74 0 75 0 78 27 5 42 -36 125 -81 163 -81 69 -239 102 -338 70z"/>
<path d="M2857 3073 c-10 -9 -8 -886 2 -901 5 -9 28 -12 77 -10 l69 3 5 165 5
165 65 -3 c36 -2 69 -6 73 -9 4 -2 39 -68 78 -146 39 -78 78 -150 87 -159 12
-14 31 -18 94 -18 43 0 78 4 78 9 0 9 -133 262 -168 320 l-21 34 52 31 c34 20
62 48 82 80 27 44 30 59 33 142 3 82 1 100 -21 147 -28 61 -83 110 -157 138
-43 16 -78 19 -238 19 -104 0 -192 -3 -195 -7z m383 -161 c62 -31 86 -113 55
-188 -22 -52 -77 -74 -192 -74 l-93 0 0 140 0 140 98 0 c72 0 106 -4 132 -18z"/>
</g>
</svg>
